<svg xmlns="http://www.w3.org/2000/svg" viewBox="0 0 12.23 12.22"><path d="M23,16.23a6,6,0,0,0-2.64.6l2.12,4a1.46,1.46,0,0,1,.52-.09,1.58,1.58,0,0,1,1.57,1.57A1.56,1.56,0,0,1,24,23.61l1.6,3,2.31-4.33h.84L26,27.43h0v0l-.17.32A6.11,6.11,0,0,0,23,16.23Z" transform="translate(-16.91 -16.23)" fill="#9cf"/><path d="M21.45,22.34a1.61,1.61,0,0,1,.41-1.06l-1.63-3.09-2.31,4.33h-.83L20,17.05A6.12,6.12,0,0,0,23,28.46,6,6,0,0,0,25.38,28L23.24,23.9l-.21,0A1.58,1.58,0,0,1,21.45,22.34Z" transform="translate(-16.91 -16.23)" fill="#f90"/><path d="M24.6,22.34A1.58,1.58,0,0,0,23,20.77a1.46,1.46,0,0,0-.52.09l.79,1.51L24,23.61A1.56,1.56,0,0,0,24.6,22.34Z" transform="translate(-16.91 -16.23)" fill="#f90"/><path d="M21.86,21.28a1.61,1.61,0,0,0-.41,1.06A1.58,1.58,0,0,0,23,23.92l.21,0-.75-1.43Z" transform="translate(-16.91 -16.23)" fill="#9cf"/></svg>